<svg width="533px" height="78px" viewBox="0 0 533 78" version="1.1" xmlns="http://www.w3.org/2000/svg" xmlns:xlink="http://www.w3.org/1999/xlink">
    <!-- Generator: Sketch 46.1 (44463) - http://www.bohemiancoding.com/sketch -->
    <desc>Created with Sketch.</desc>
    <defs></defs>
    <g id="Page-1" stroke="none" stroke-width="1" fill="none" fill-rule="evenodd">
        <text id="ChordBoard" font-family="SanFranciscoDisplay-Bold, San Francisco Display" font-size="85" font-weight="bold" fill="#000000">
            <tspan x="77" y="45">ChordBoard</tspan>
        </text>
        <g id="chordboard-logo" fill-rule="nonzero" fill="#000000">
            <path d="M0,0 L0,78 L17,78 L17,0 L0,0 Z M15.2378446,74.2360937 L1.76052833,74.2360937 L1.76052833,3.76390629 L15.2378446,3.76390629 L15.2378446,74.2360937 Z" id="Shape"></path>
            <path d="M20,0 L20,78 L37,78 L37,0 L20,0 Z M35.2378446,74.2376704 L21.7605283,74.2376704 L21.7605283,3.76398624 L35.2378446,3.76398624 L35.2378446,74.2376704 Z" id="Shape"></path>
            <path d="M39,0 L39,78 L56,78 L56,0 L39,0 Z M54.2378446,74.2360937 L40.7605283,74.2360937 L40.7605283,3.76390629 L54.2378446,3.76390629 L54.2378446,74.2360937 Z" id="Shape"></path>
            <rect id="Rectangle-path" x="14" y="0" width="10" height="47"></rect>
            <rect id="Rectangle-path" x="33" y="0" width="10" height="47"></rect>
        </g>
    </g>
</svg>
