<svg xmlns="http://www.w3.org/2000/svg" xmlns:xlink="http://www.w3.org/1999/xlink" xmlns:a="http://ns.adobe.com/AdobeSVGViewerExtensions/3.0/" version="1.1" x="0px" y="0px" viewBox="-8.178 -25.629 100 125" enable-background="new -8.178 -25.629 100 100" xml:space="preserve"><path d="M0,0v47.083h10.448V0H0z M9.365,44.811H1.082V2.272h8.283V44.811z"/><path d="M12.26,0v47.082h10.448V0H12.26z M21.625,44.811h-8.283V2.272h8.283V44.811z"/><path d="M24.325,0v47.083h10.448V0H24.325z M33.69,44.811h-8.283V2.272h8.283V44.811z"/><path d="M36.587,0v47.083h10.447V0H36.587z M45.952,44.811h-8.283V2.272h8.283V44.811z"/><path d="M48.847,0v47.083h10.448V0H48.847z M58.212,44.811h-8.283V2.272h8.283V44.811z"/><path d="M60.912,0v47.083H71.36V0H60.912z M70.277,44.811h-8.283V2.272h8.283V44.811z"/><path d="M73.173,0v47.083h10.448V0H73.173z M82.538,44.811h-8.283V2.272h8.283V44.811z"/><rect x="8.32" y="0" width="6.5" height="28.038"/><rect x="20.364" y="0" width="6.5" height="28.038"/><rect x="44.365" y="0.001" width="6.5" height="28.038"/><rect x="56.95" y="0" width="6.5" height="28.039"/><rect x="69.017" y="0.001" width="6.5" height="28.038"/><rect y="49.371" width="9.654" height="11"/><rect x="24.722" y="49.371" width="9.654" height="11"/><rect x="49.243" y="49.371" width="9.654" height="11"/><text x="-8.178" y="89.371" fill="#000000" font-size="5px" font-weight="bold" font-family="'Helvetica Neue', Helvetica, Arial-Unicode, Arial, Sans-serif">Created by Adam  Mullin</text><text x="-8.178" y="94.371" fill="#000000" font-size="5px" font-weight="bold" font-family="'Helvetica Neue', Helvetica, Arial-Unicode, Arial, Sans-serif">from the Noun Project</text></svg>