<?xml version="1.0" encoding="UTF-8"?>
<svg width="143px" height="160px" viewBox="0 0 143 160" version="1.1" xmlns="http://www.w3.org/2000/svg" xmlns:xlink="http://www.w3.org/1999/xlink">
    <!-- Generator: Sketch 46.1 (44463) - http://www.bohemiancoding.com/sketch -->
    <title>favicon</title>
    <desc>Created with Sketch.</desc>
    <defs></defs>
    <g id="Page-1" stroke="none" stroke-width="1" fill="none" fill-rule="evenodd">
        <g id="chordboard-logo-copy-2" fill-rule="nonzero" fill="#00D1B2">
            <g id="favicon">
                <path d="M47,0 L47,160 L97,160 L97,0 L47,0 Z M92,151.794872 L52,151.794872 L52,8.20512821 L92,8.20512821 L92,151.794872 Z" id="key-d"></path>
                <path d="M93,0 L93,160 L143,160 L143,0 L93,0 Z M138,151.794872 L98,151.794872 L98,8.20512821 L138,8.20512821 L138,151.794872 Z" id="key-e"></path>
                <path d="M0,0 L0,160 L50,160 L50,0 L0,0 Z M45,151.794872 L5,151.794872 L5,8.20512821 L45,8.20512821 L45,151.794872 Z" id="key-c"></path>
                <rect id="key-c#" x="35" y="0" width="24" height="74.4654088"></rect>
                <rect id="key-d#" x="82" y="0" width="24" height="74.4654088"></rect>
            </g>
        </g>
    </g>
</svg>